<svg xmlns="http://www.w3.org/2000/svg" viewBox="0 0 48 48" fill="currentColor">
    <path d="M1.8,19.8c-2.3,2.3-2.3,6.1,0,8.4l18.1,18c2.3,2.3,6.1,2.3,8.4,0l18-18c2.3-2.3,2.3-6.1,0-8.4L28.3,1.8c-2.3-2.3-6.1-2.3-8.4,0L1.8,19.8ZM20.9,30.3h-.7c-3-.2-5.4-2.6-5.4-5.7s2.6-5.7,5.7-5.7,5.7,2.6,5.7,5.7c0,3.1-2.4,5.5-5.3,5.7M40.7,19.2c0-.2-.2-.4-.4-.4h-8c-.2,0-.5.2-.5.5-.1,3.8-2.2,7.1-5.1,9.1.7-1.1,1.1-2.4,1.1-3.8,0-4-3.3-7.3-7.3-7.3s-7.3,3.3-7.3,7.3.4,2.8,1.1,3.9c-3.1-1.9-5.1-5.3-5.3-9.1,0-.2-.2-.5-.5-.5h-.7c-.2,0-.5.2-.5.5.3,9,7.6,16.1,16.7,16.1s16.5-7.3,16.6-16.3" fill-rule="evenodd"/>
</svg>