<svg xmlns="http://www.w3.org/2000/svg" viewBox="0 0 48.03 48.03" fill="currentColor">
    <path fill-rule="evenodd" d="M1.7572,19.8398c-2.3429,2.2829-2.3429,6.0676,0,8.4105l18.0826,18.0225c2.3429,2.3429,6.0676,2.3429,8.4105,0l18.0225-18.0225c2.3429-2.3429,2.3429-6.0676,0-8.4105L28.2503,1.7572c-2.3429-2.3429-6.1277-2.3429-8.4105,0L1.7572,19.8398ZM20.9212,30.2929h-.6608c-3.0038-.1802-5.4068-2.6433-5.4068-5.7071,0-3.184,2.5832-5.7071,5.7071-5.7071,3.184,0,5.7071,2.5832,5.7071,5.7071-.0601,3.0638-2.403,5.4668-5.3467,5.7071M40.6859,19.239c0-.1802-.1802-.3605-.3604-.3605h-7.99c-.2403,0-.4806.1802-.4806.4806-.1202,3.7847-2.1627,7.0889-5.1064,9.0713.6608-1.0814,1.0814-2.403,1.0814-3.7847,0-4.025-3.3041-7.3292-7.3292-7.3292s-7.3292,3.3041-7.3292,7.3292c0,1.4418.4205,2.7635,1.1414,3.9049-3.0638-1.9224-5.1064-5.2866-5.2866-9.1314,0-.2403-.2403-.4806-.4806-.4806h-.7209c-.2403,0-.4806.2403-.4806.4806.3004,8.9512,7.6295,16.1001,16.7009,16.1001s16.4606-7.2691,16.6408-16.2803Z"/>
</svg>